<mxfile host="app.diagrams.net" modified="2021-09-30T20:07:15.548Z" agent="5.0 (Windows NT 10.0; Win64; x64) AppleWebKit/537.36 (KHTML, like Gecko) Chrome/94.0.4606.61 Safari/537.36" etag="M7X7lUMeyNavrvLVZ7jC" version="15.3.8" type="github">
  <diagram id="vcU9gPKcXCUbcr1fDcbV" name="Page-1">
    <mxGraphModel dx="1348" dy="802" grid="1" gridSize="10" guides="1" tooltips="1" connect="1" arrows="1" fold="1" page="1" pageScale="1" pageWidth="827" pageHeight="1169" math="0" shadow="0">
      <root>
        <mxCell id="0" />
        <mxCell id="1" parent="0" />
        <mxCell id="EeiZib3UoUAIcUQDYQgj-2" value="" style="rounded=0;whiteSpace=wrap;html=1;" vertex="1" parent="1">
          <mxGeometry x="4" width="820" height="160" as="geometry" />
        </mxCell>
        <mxCell id="EeiZib3UoUAIcUQDYQgj-1" value="Valikko" style="rounded=1;whiteSpace=wrap;html=1;" vertex="1" parent="1">
          <mxGeometry x="10" y="10" width="340" height="30" as="geometry" />
        </mxCell>
        <mxCell id="EeiZib3UoUAIcUQDYQgj-3" value="tekstiÃ¤" style="rounded=1;whiteSpace=wrap;html=1;" vertex="1" parent="1">
          <mxGeometry x="4" y="170" width="506" height="570" as="geometry" />
        </mxCell>
      </root>
    </mxGraphModel>
  </diagram>
</mxfile>
